<svg width="30.462" height="30.461" xmlns="http://www.w3.org/2000/svg" version="1.1" xml:space="preserve">
 <g>
  <title>Layer 1</title>
  <path fill="#ffffff" stroke-dasharray="5,2,2,2" d="m26.717,4.379l-21.469,0c-1.889,0 -3.786,1.409 -3.786,3.027l0,13.011c0,0.067 -0.006,0.001 0,0.067l-1.462,5.349l5.113,-2.443c0.033,0 0.102,-0.01 0.135,-0.01l21.469,0c1.889,0 3.745,-1.344 3.745,-2.962l0,-13.012c0,-1.617 -1.857,-3.027 -3.745,-3.027zm0.745,16.038c0,0.54 -0.114,0.962 -0.745,0.962l-21.469,0c-0.631,0 -0.786,-0.422 -0.786,-0.962l0,-13.011c0,-0.54 0.155,-1.027 0.786,-1.027l21.469,0c0.631,0 0.745,0.487 0.745,1.027l0,13.011z" id="svg_3"/>
  <path fill="#ffffff" stroke-dasharray="5,2,2,2" d="m25.059,10.379l-18.129,0c-0.532,0 -0.963,0.406 -0.963,1s0.431,1 0.963,1l18.128,0c0.53,0 0.963,-0.406 0.963,-1s-0.431,-1 -0.962,-1z" id="svg_4"/>
  <path fill="#ffffff" stroke-width="2" stroke-dasharray="5,2,2,2,2,2" d="m22.5865,15.379l-14.712,0c-0.432,0 -0.782,0.406 -0.782,1c0,0.593 0.35,1 0.782,1l14.712,0c0.434,0 0.783,-0.407 0.783,-1c0,-0.593 -0.349,-1 -0.783,-1z" id="svg_5"/>
  <g id="svg_6"/>
  <g id="svg_7"/>
  <g id="svg_8"/>
  <g id="svg_9"/>
  <g id="svg_10"/>
  <g id="svg_11"/>
  <g id="svg_12"/>
  <g id="svg_13"/>
  <g id="svg_14"/>
  <g id="svg_15"/>
  <g id="svg_16"/>
  <g id="svg_17"/>
  <g id="svg_18"/>
  <g id="svg_19"/>
  <g id="svg_20"/>
 </g>

</svg>